<?xml version="1.0" encoding="UTF-8" standalone="no"?>
<!DOCTYPE svg PUBLIC "-//W3C//DTD SVG 1.1//EN" "http://www.w3.org/Graphics/SVG/1.1/DTD/svg11.dtd">
<!-- Created with Vectornator (http://vectornator.io/) -->
<svg height="100%" stroke-miterlimit="10" style="fill-rule:nonzero;clip-rule:evenodd;stroke-linecap:round;stroke-linejoin:round;" version="1.1" viewBox="0 0 28 25" width="100%" xml:space="preserve" xmlns="http://www.w3.org/2000/svg" xmlns:xlink="http://www.w3.org/1999/xlink">
<defs/>
<g id="Untitled">
<path d="M0 0L3.90625 7L5.0625 7L1.6875 1C3.84083 1 24.1592 1 26.3125 1L22.9375 7L24.0938 7L28 0L0 0ZM0 8L0 9L28 9L28 8L0 8ZM5.59375 10L14 25L22.4062 10L21.5 10L21.25 10L20.7812 10C20.6242 10.1423 20.4669 10.285 20.4062 10.3438C18.0297 12.6455 16.5479 13.5 14 13.5C11.4522 13.5 9.9702 12.6454 7.59375 10.3438C7.53306 10.285 7.37575 10.1423 7.21875 10L6.75 10L6.5 10L5.59375 10ZM7.71875 11.7188C9.79785 13.5654 11.4868 14.5 14 14.5C16.5132 14.5 18.2021 13.5655 20.2812 11.7188L14 22.9375L7.71875 11.7188ZM10 10C10.7404 11.4701 12.2417 12.5 14 12.5C15.7583 12.5 17.2596 11.4701 18 10L16.7812 10C16.146 10.8841 15.1717 11.5 14 11.5C12.8283 11.5 11.854 10.8841 11.2188 10L10 10Z" fill="#EDEDED" fill-rule="nonzero" opacity="1" stroke="none"/>
</g>
</svg>
